<svg xmlns="http://www.w3.org/2000/svg" viewBox="0 0 297.5 69.84"><defs><style>.cls-1{fill:#231f20;}</style></defs><title>teradici-logo</title><g id="Teradici_logo" data-name="Teradici logo"><path class="cls-1" d="M54.91,56.08H42.84V76.19A39.65,39.65,0,0,0,43,80.36a3.39,3.39,0,0,0,1.08,2.11,4.1,4.1,0,0,0,2.89.89l7.46-.2L55,93.65a50,50,0,0,1-10,1.47q-8.83,0-12.07-4T29.7,76.48V56.08H23.91V44.9H29.7V31.26H42.84V44.9H54.91ZM224,25.28V93.94H211V91.88q-6.87,3.23-11.87,3.24-10.69,0-14.91-6.18T180,69.37Q180,56,185,49.85t15.25-6.13a54.23,54.23,0,0,1,8.73,1l1.86.39V25.28ZM209.48,82.17l1.37-.3V56.08a54,54,0,0,0-9.61-1q-7.95,0-7.94,14.12,0,7.65,1.76,10.89a6.14,6.14,0,0,0,5.84,3.24A34.11,34.11,0,0,0,209.48,82.17Zm22.73-43.55V25.28h13.14V38.62Zm0,55.32v-49h13.14v49Zm39.25-50.22a70.55,70.55,0,0,1,13,1.57l2.65.59-.39,10.39q-7.75-.78-11.48-.79-6.77,0-9,2.89t-2.21,10.93q0,8.05,2.21,11t9.07,3l11.38-.79.39,10.49a90.1,90.1,0,0,1-16,2.07q-10.89,0-15.64-6.13t-4.76-19.67q0-13.54,4.91-19.56T271.46,43.72Zm21.38-5.1V25.28H306V38.62Zm0,55.32v-49H306v49ZM96.24,82.87l-.79.09q-7.16.59-16.28.59-4.32,0-6.62-2T70.14,75h26.1V51.3c-3.46-5-9.34-7.58-17.66-7.58q-21.68,0-21.68,26.39,0,13.24,5,19.12T78,95.12a84.07,84.07,0,0,0,18.25-2.25Zm-24.19-26q1.91-2.4,6.57-2.4t6.52,2.31Q87,59.12,87,65H70Q70.14,59.31,72.06,56.91Zm44,4.14a35.71,35.71,0,0,1,15.59-4.11V43.72A49.87,49.87,0,0,0,116,50.1V44.9h-13v49h13.14V61.09h0Zm57.21,22.83a7.8,7.8,0,0,1-.78-3.28V60.2q0-8.62-4.17-12.55t-13.63-3.93a74.77,74.77,0,0,0-17.51,2.22V55.6l16.38-.7A7,7,0,0,1,158,56c.91.75,1.37,2.15,1.37,4.17v3l-10.5.78q-8.73.59-12.95,3.88T131.7,79q0,16.1,15.2,16.09a32.6,32.6,0,0,0,14.42-3.44,17.78,17.78,0,0,0,6,2.75,36.8,36.8,0,0,0,8,.69l.39-9.91A3.66,3.66,0,0,1,173.29,83.89Zm-13.93-1-1.47.4a32.14,32.14,0,0,1-8.14,1.17q-4.81,0-4.8-5.4t5.49-5.88l8.93-.79ZM310.92,86.8a5.53,5.53,0,0,1,1.18-1.71,5.62,5.62,0,0,1,1.75-1.14,5.59,5.59,0,0,1,4.22,0,5.39,5.39,0,0,1,1.73,1.14A5.57,5.57,0,0,1,321,86.8a5.32,5.32,0,0,1,.44,2.14,5.44,5.44,0,0,1-.44,2.17,5.61,5.61,0,0,1-1.18,1.73A5.15,5.15,0,0,1,318.07,94a5.69,5.69,0,0,1-4.22,0,5.35,5.35,0,0,1-1.75-1.14,5.57,5.57,0,0,1-1.18-1.73,5.31,5.31,0,0,1-.44-2.17A5.19,5.19,0,0,1,310.92,86.8Zm.89,4a4.46,4.46,0,0,0,.94,1.47,4.35,4.35,0,0,0,1.43,1,4.42,4.42,0,0,0,1.78.36,4.31,4.31,0,0,0,1.76-.36,4.26,4.26,0,0,0,1.42-1,4.45,4.45,0,0,0,.95-1.47,4.91,4.91,0,0,0,.34-1.85,4.83,4.83,0,0,0-.34-1.82,4.46,4.46,0,0,0-2.37-2.43,4.25,4.25,0,0,0-1.76-.36,4.36,4.36,0,0,0-1.78.36,4.5,4.5,0,0,0-1.43,1,4.45,4.45,0,0,0-.94,1.46,4.83,4.83,0,0,0-.34,1.82A4.91,4.91,0,0,0,311.81,90.79Zm4.49-5a2.57,2.57,0,0,1,1.68.45,1.65,1.65,0,0,1,.54,1.36,1.54,1.54,0,0,1-.48,1.26,2.17,2.17,0,0,1-1.19.47l1.82,2.8h-1.06l-1.73-2.73h-1v2.73h-1V85.79Zm-.44,2.82.63,0a1.92,1.92,0,0,0,.53-.12.83.83,0,0,0,.37-.32,1,1,0,0,0,.14-.59,1,1,0,0,0-.12-.51.91.91,0,0,0-.32-.29,1.53,1.53,0,0,0-.45-.14,4.11,4.11,0,0,0-.5,0h-1.31v2Z" transform="translate(-23.91 -25.28)"/></g></svg>